<svg width="47" height="45" viewBox="0 0 47 45" fill="none" xmlns="http://www.w3.org/2000/svg">
<path d="M43.9778 0.911621H3.03781C2.36681 0.911621 1.7233 1.16641 1.24883 1.61993C0.774366 2.07346 0.507812 2.68857 0.507812 3.32995V42.463C0.507812 42.7806 0.573253 43.095 0.700397 43.3884C0.827542 43.6818 1.0139 43.9484 1.24883 44.173C1.48376 44.3976 1.76267 44.5757 2.06962 44.6972C2.37658 44.8188 2.70557 44.8813 3.03781 44.8813H25.0718V27.8431H19.0918V21.2476H25.0718V16.301C24.9479 15.1397 25.0914 13.9665 25.4921 12.8638C25.8927 11.761 26.541 10.7554 27.3913 9.91752C28.2416 9.0796 29.2734 8.42965 30.4143 8.01325C31.5552 7.59685 32.7776 7.42409 33.9958 7.50707C35.786 7.49654 37.5753 7.58463 39.3548 7.77089V13.7068H35.6978C32.7998 13.7068 32.2478 15.0259 32.2478 16.9386V21.1816H39.1478L38.2508 27.7771H32.2478V44.8813H43.9778C44.3101 44.8813 44.639 44.8188 44.946 44.6972C45.253 44.5757 45.5319 44.3976 45.7668 44.173C46.0017 43.9484 46.1881 43.6818 46.3152 43.3884C46.4424 43.095 46.5078 42.7806 46.5078 42.463V3.32995C46.5078 3.01237 46.4424 2.6979 46.3152 2.4045C46.1881 2.11109 46.0017 1.8445 45.7668 1.61993C45.5319 1.39537 45.253 1.21724 44.946 1.09571C44.639 0.974173 44.3101 0.911621 43.9778 0.911621Z" fill="white"/>
</svg>
