<svg width="51" height="49" viewBox="0 0 51 49" fill="none" xmlns="http://www.w3.org/2000/svg">
<path d="M25.5 18.3296C24.2492 18.3296 23.0266 18.6842 21.9866 19.3484C20.9466 20.0126 20.136 20.9567 19.6574 22.0612C19.1787 23.1658 19.0535 24.3812 19.2975 25.5538C19.5415 26.7264 20.1438 27.8035 21.0283 28.6489C21.9127 29.4943 23.0395 30.07 24.2662 30.3032C25.493 30.5365 26.7645 30.4168 27.9201 29.9592C29.0756 29.5017 30.0633 28.7269 30.7582 27.7329C31.4531 26.7388 31.824 25.5701 31.824 24.3745C31.824 23.5807 31.6604 22.7946 31.3426 22.0612C31.0248 21.3278 30.559 20.6614 29.9717 20.1001C29.3845 19.5388 28.6874 19.0935 27.9201 18.7898C27.1528 18.486 26.3305 18.3296 25.5 18.3296ZM50.8215 12.3579C50.8081 10.4756 50.4455 8.61047 49.7505 6.84924C49.2387 5.56046 48.4467 4.39008 47.427 3.41532C46.4072 2.44056 45.1828 1.68359 43.8345 1.19435C41.9919 0.530057 40.0407 0.183445 38.0715 0.170621C34.782 -1.63444e-07 33.813 0 25.5 0C17.187 0 16.218 -1.63444e-07 12.9285 0.170621C10.9593 0.183445 9.00806 0.530057 7.1655 1.19435C5.81721 1.68359 4.59279 2.44056 3.57302 3.41532C2.55326 4.39008 1.76133 5.56046 1.2495 6.84924C0.554533 8.61047 0.191915 10.4756 0.1785 12.3579C-1.70991e-07 15.5022 0 16.4284 0 24.3745C0 32.3206 -1.70991e-07 33.2468 0.1785 36.3911C0.205948 38.2801 0.568075 40.1509 1.2495 41.9241C1.75906 43.207 2.55033 44.3706 3.57 45.3366C4.58539 46.3172 5.81244 47.0742 7.1655 47.5547C9.00806 48.2189 10.9593 48.5656 12.9285 48.5784C16.218 48.749 17.187 48.749 25.5 48.749C33.813 48.749 34.782 48.749 38.0715 48.5784C40.0407 48.5656 41.9919 48.2189 43.8345 47.5547C45.1876 47.0742 46.4146 46.3172 47.43 45.3366C48.4497 44.3706 49.2409 43.207 49.7505 41.9241C50.4448 40.1543 50.8073 38.2813 50.8215 36.3911C51 33.2468 51 32.3206 51 24.3745C51 16.4284 51 15.5022 50.8215 12.3579ZM44.3445 31.8575C44.2627 33.3616 43.9268 34.8432 43.35 36.2449C42.855 37.4141 42.119 38.4762 41.1859 39.3681C40.2529 40.26 39.1417 40.9635 37.9185 41.4367C36.4383 41.9573 34.8796 42.2454 33.303 42.2898C31.2885 42.2898 30.753 42.2898 25.5 42.2898C20.247 42.2898 19.7115 42.2898 17.697 42.2898C16.1204 42.2454 14.5617 41.9573 13.0815 41.4367C11.817 40.9875 10.675 40.2709 9.741 39.3404C8.81705 38.466 8.1035 37.4097 7.65 36.2449C7.10317 34.8314 6.81005 33.3399 6.783 31.8331C6.783 29.9075 6.783 29.3956 6.783 24.3745C6.783 19.3534 6.783 18.8415 6.783 16.9159C6.81005 15.4091 7.10317 13.9176 7.65 12.5041C8.11992 11.2954 8.8696 10.2038 9.843 9.31106C10.7619 8.43266 11.8658 7.75132 13.0815 7.31235C14.5617 6.79173 16.1204 6.50363 17.697 6.45924C19.7115 6.45924 20.247 6.45924 25.5 6.45924C30.753 6.45924 31.2885 6.45924 33.303 6.45924C34.8796 6.50363 36.4383 6.79173 37.9185 7.31235C39.183 7.76153 40.325 8.47812 41.259 9.40856C42.1829 10.283 42.8965 11.3393 43.35 12.5041C43.8947 13.919 44.1961 15.4089 44.2425 16.9159C44.2425 18.8415 44.2425 19.3534 44.2425 24.3745C44.2425 29.3956 44.421 29.9075 44.3445 31.8331V31.8575ZM40.2645 13.7228C39.9609 12.9355 39.4822 12.2205 38.8615 11.6272C38.2407 11.0338 37.4927 10.5763 36.669 10.286C35.538 9.91131 34.3468 9.72979 33.15 9.7498C31.161 9.7498 30.6 9.7498 25.5 9.7498C20.4 9.7498 19.839 9.7498 17.85 9.7498C16.6471 9.76104 15.4557 9.97559 14.331 10.3835C13.5199 10.6606 12.7798 11.0994 12.1599 11.671C11.54 12.2426 11.0544 12.9337 10.7355 13.6985C10.3652 14.784 10.1843 15.9204 10.2 17.0622C10.2 18.9634 10.2 19.4996 10.2 24.3745C10.2 29.2494 10.2 29.7856 10.2 31.6869C10.2253 32.8354 10.4493 33.972 10.863 35.0505C11.1666 35.8379 11.6453 36.5529 12.266 37.1462C12.8868 37.7396 13.6348 38.1971 14.4585 38.4873C15.5465 38.8698 16.6914 39.0837 17.85 39.1211C19.839 39.1211 20.4 39.1211 25.5 39.1211C30.6 39.1211 31.161 39.1211 33.15 39.1211C34.3529 39.1098 35.5443 38.8953 36.669 38.4873C37.4927 38.1971 38.2407 37.7396 38.8615 37.1462C39.4822 36.5529 39.9609 35.8379 40.2645 35.0505C40.6913 33.9754 40.9157 32.8367 40.9275 31.6869C40.9275 29.7856 40.9275 29.2494 40.9275 24.3745C40.9275 19.4996 40.9275 18.9634 40.9275 17.0622C40.9282 15.9112 40.7034 14.7703 40.2645 13.6985V13.7228ZM25.5 33.6856C24.222 33.6856 22.9565 33.4446 21.7761 32.9763C20.5957 32.5081 19.5236 31.8219 18.6211 30.9569C17.7186 30.092 17.0035 29.0654 16.5167 27.9358C16.03 26.8063 15.7811 25.5961 15.7845 24.3745C15.7845 22.5319 16.3565 20.7307 17.4279 19.199C18.4994 17.6673 20.0223 16.4739 21.8037 15.7699C23.5851 15.0659 25.545 14.8829 27.4353 15.2442C29.3255 15.6054 31.0612 16.4946 32.4224 17.7993C33.7837 19.1039 34.7095 20.7652 35.0824 22.573C35.4554 24.3808 35.2589 26.2537 34.5177 27.9546C33.7765 29.6556 32.524 31.1081 30.9187 32.1282C29.3135 33.1484 27.4277 33.6904 25.5 33.6856ZM35.7 16.8915C35.1363 16.8345 34.6146 16.5801 34.2355 16.1773C33.8564 15.7745 33.6466 15.2518 33.6466 14.71C33.6466 14.1682 33.8564 13.6455 34.2355 13.2427C34.6146 12.8399 35.1363 12.5855 35.7 12.5285C36.2637 12.5855 36.7854 12.8399 37.1645 13.2427C37.5436 13.6455 37.7534 14.1682 37.7534 14.71C37.7534 15.2518 37.5436 15.7745 37.1645 16.1773C36.7854 16.5801 36.2637 16.8345 35.7 16.8915Z" fill="white"/>
</svg>
