<svg width="49" height="47" viewBox="0 0 49 47" fill="none" xmlns="http://www.w3.org/2000/svg">
<path fill-rule="evenodd" clip-rule="evenodd" d="M42.3556 0.955811H6.66001C3.27961 0.955811 0.507812 3.60556 0.507812 6.83637V40.9566C0.507812 44.1874 3.27961 46.8372 6.66001 46.8372H42.3555C45.7363 46.8372 48.5078 44.1874 48.5078 40.9567V6.83637C48.5078 3.60556 45.7363 0.955811 42.3556 0.955811ZM17.0078 23.1139V37.2786H10.5078V19.404H17.0078V23.1139ZM13.7448 16.7398C11.9365 16.7398 10.4692 15.3383 10.4692 13.6088C10.4692 11.8789 11.9365 10.4792 13.7448 10.4792C15.5556 10.4792 17.0215 11.879 17.0215 13.6088C17.0215 15.3383 15.5557 16.7398 13.7448 16.7398ZM38.5078 27.5288V37.2786H32.9078V28.5962C32.9078 26.5172 32.6723 23.8433 29.6914 23.8433C26.6652 23.8433 26.2078 26.1067 26.2078 28.4463V37.2786H20.8078V19.404H26.0078V21.7936H26.0632C26.8388 20.4554 28.7389 19.4021 31.5683 19.4021C36.3355 19.4021 37.9555 21.5569 38.3988 24.9281C38.504 25.7193 38.5446 26.5729 38.5446 27.5288H38.5078Z" fill="white"/>
</svg>
