<svg width="57" height="45" viewBox="0 0 57 45" fill="none" xmlns="http://www.w3.org/2000/svg">
<path d="M56.5068 6.17949C54.3831 7.06015 52.1372 7.64232 49.839 7.90789C52.2636 6.52333 54.0806 4.34517 54.9529 1.77745C52.6744 3.07392 50.1802 3.98737 47.5787 4.47808C45.8399 2.6756 43.5243 1.47578 40.9951 1.06678C38.466 0.65778 35.8664 1.06275 33.604 2.21816C31.3416 3.37358 29.5444 5.21409 28.4942 7.45104C27.4441 9.688 27.2004 12.1949 27.8013 14.5785C23.1944 14.3557 18.688 13.2091 14.575 11.2131C10.4619 9.21708 6.83406 6.41631 3.92722 2.99273C2.90766 4.69459 2.37193 6.62191 2.37329 8.58305C2.36967 10.4043 2.83725 12.1982 3.73441 13.8049C4.63156 15.4116 5.93044 16.7814 7.5154 17.7922C5.67322 17.7443 3.87039 17.2718 2.26027 16.4149V16.5499C2.27408 19.1017 3.20957 21.5707 4.9085 23.5391C6.60744 25.5075 8.96553 26.8546 11.5839 27.3525C10.576 27.6457 9.52952 27.8003 8.47602 27.8116C7.74677 27.8034 7.01934 27.7402 6.30051 27.6225C7.04614 29.8177 8.48908 31.736 10.4285 33.1107C12.368 34.4853 14.7075 35.2479 17.1216 35.2924C13.0452 38.3583 8.01233 40.0316 2.82534 40.0455C1.88093 40.0484 0.937266 39.9943 0 39.8834C5.2959 43.1519 11.4675 44.887 17.7714 44.8796C22.1215 44.9228 26.4371 44.137 30.466 42.5681C34.4948 40.9992 38.1563 38.6786 41.2364 35.742C44.3165 32.8054 46.7536 29.3115 48.4053 25.4645C50.057 21.6175 50.8901 17.4944 50.8561 13.3362C50.8561 12.8771 50.8561 12.391 50.8561 11.9048C53.0732 10.3245 54.9853 8.38705 56.5068 6.17949Z" fill="white"/>
</svg>
